<?xml version="1.0" encoding="utf-8"?>
<!-- Generator: Adobe Illustrator 24.0.2, SVG Export Plug-In . SVG Version: 6.00 Build 0)  -->
<svg version="1.1" id="Layer_1" xmlns="http://www.w3.org/2000/svg" xmlns:xlink="http://www.w3.org/1999/xlink" x="0px" y="0px"
	 viewBox="0 0 46.5 10.2" style="enable-background:new 0 0 46.5 10.2;" xml:space="preserve">
<style type="text/css">
	.st0{fill:#00AEEF;}
</style>
<g>
	<path d="M4.8,9.4L3.1,7.2L1.5,9.4h-1.7l2.5-3.3L-0.1,3h1.7l1.6,2.1L4.7,3h1.6L4,6.1l2.5,3.3H4.8z"/>
	<path d="M6.8,6.2c0-1.9,1.4-3.3,3.4-3.3c2,0,3.4,1.4,3.4,3.3s-1.4,3.3-3.4,3.3C8.3,9.5,6.8,8.1,6.8,6.2z M12.1,6.2
		c0-1.2-0.8-2-1.9-2c-1.1,0-1.9,0.8-1.9,2c0,1.2,0.8,2,1.9,2C11.3,8.2,12.1,7.4,12.1,6.2z"/>
	<path d="M21.4,5.7v3.7h-1.5V5.9c0-1.1-0.6-1.7-1.5-1.7c-1.1,0-1.8,0.6-1.8,1.9v3.2h-1.5V3h1.4v0.8c0.5-0.6,1.3-0.9,2.2-0.9
		C20.3,2.9,21.4,3.8,21.4,5.7z"/>
	<path d="M23.1,1c0-0.5,0.4-0.9,1-0.9c0.6,0,1,0.4,1,0.9c0,0.5-0.4,0.9-1,0.9C23.5,1.9,23.1,1.5,23.1,1z M23.3,3h1.5v6.4h-1.5V3z"/>
	<path d="M26.2,6.2c0-1.9,1.4-3.3,3.5-3.3c1.2,0,2.2,0.5,2.7,1.5l-1.2,0.7c-0.4-0.6-1-0.9-1.6-0.9c-1.1,0-1.9,0.8-1.9,2
		c0,1.2,0.8,2,1.9,2c0.6,0,1.2-0.3,1.6-0.9L32.4,8c-0.5,1-1.5,1.5-2.7,1.5C27.7,9.5,26.2,8.1,26.2,6.2z"/>
	<path class="st0" d="M33.5,8.5c0-0.6,0.4-1,1-1c0.5,0,1,0.4,1,1c0,0.6-0.4,1-1,1C33.9,9.5,33.5,9.1,33.5,8.5z"/>
	<path class="st0" d="M42.4,5.6v3.8H41V8.6c-0.4,0.6-1.1,0.9-2,0.9c-1.5,0-2.4-0.8-2.4-1.9c0-1.1,0.7-1.9,2.7-1.9h1.7V5.6
		c0-0.9-0.5-1.4-1.6-1.4c-0.7,0-1.5,0.2-1.9,0.6l-0.6-1.1c0.7-0.5,1.7-0.8,2.7-0.8C41.3,2.9,42.4,3.8,42.4,5.6z M40.9,7.4V6.7h-1.5
		c-1,0-1.3,0.4-1.3,0.9c0,0.5,0.5,0.9,1.2,0.9C40,8.4,40.6,8.1,40.9,7.4z"/>
	<path class="st0" d="M44.1,1c0-0.5,0.4-0.9,1-0.9c0.6,0,1,0.4,1,0.9c0,0.5-0.4,0.9-1,0.9C44.5,1.9,44.1,1.5,44.1,1z M44.3,3h1.5
		v6.4h-1.5V3z"/>
</g>
<g>
</g>
<g>
</g>
<g>
</g>
<g>
</g>
<g>
</g>
<g>
</g>
<g>
</g>
<g>
</g>
<g>
</g>
<g>
</g>
<g>
</g>
<g>
</g>
<g>
</g>
<g>
</g>
<g>
</g>
</svg>
