<svg xmlns="http://www.w3.org/2000/svg" viewBox="0 0 147.6 40"><defs><style>.a,.b{fill:#2563eb;}.a{fill-rule:evenodd;}</style></defs><title>Asset 4</title><path class="a" d="M0,20A20,20,0,1,0,20,0,20,20,0,0,0,0,20ZM20,36A15,15,0,0,1,5.3,24,2.58,2.58,0,0,1,8,21H32a2.58,2.58,0,0,1,2.7,3A15,15,0,0,1,20,36Z"/><path d="M70.68,26.56H67.45L59.62,13.78h-.1c0,.43.06.89.08,1.38s0,1,.07,1.49,0,1,0,1.54v8.37H57.33v-16h3.21l7.82,12.69h.08c0-.37,0-.8-.06-1.28s0-1-.06-1.49,0-1,0-1.5V10.55h2.39Z"/><path d="M79.45,14.21a5.43,5.43,0,0,1,2.78.67A4.4,4.4,0,0,1,84,16.77a6.38,6.38,0,0,1,.63,2.94v1.37H76.55a3.92,3.92,0,0,0,1,2.72,3.32,3.32,0,0,0,2.53.95,8.94,8.94,0,0,0,2.09-.22A10.94,10.94,0,0,0,84,23.86V26a8.75,8.75,0,0,1-1.85.62,11.28,11.28,0,0,1-2.26.2,6.82,6.82,0,0,1-3.14-.69A4.9,4.9,0,0,1,74.67,24a7,7,0,0,1-.76-3.44,7.88,7.88,0,0,1,.69-3.46A5,5,0,0,1,76.54,15,5.62,5.62,0,0,1,79.45,14.21Zm0,1.94a2.56,2.56,0,0,0-2,.79,3.71,3.71,0,0,0-.89,2.31h5.51a4.4,4.4,0,0,0-.3-1.61,2.36,2.36,0,0,0-.87-1.09A2.54,2.54,0,0,0,79.45,16.15Z"/><path d="M97.44,26.55l-1.53-5.63c-.07-.28-.16-.61-.26-1s-.21-.8-.31-1.22-.19-.81-.28-1.17-.14-.64-.19-.84h-.09c0,.2-.09.48-.17.84s-.17.75-.27,1.18-.21.83-.3,1.23-.19.75-.27,1l-1.61,5.6H89.33L85.94,14.43h2.61l1.57,6q.15.61.3,1.32c.1.48.19.93.26,1.36s.13.79.16,1.06h.09l.12-.75c0-.3.11-.62.18-1s.13-.65.19-.94.13-.54.19-.72l1.86-6.4h2.81l1.79,6.4c.08.28.17.63.26,1.05s.18.84.26,1.26.12.76.15,1h.08c0-.25.09-.58.16-1s.17-.88.27-1.37.21-.93.32-1.35l1.61-6h2.56l-3.42,12.12Z"/><path d="M114,23.1a3.38,3.38,0,0,1-.58,2,3.52,3.52,0,0,1-1.69,1.24,7.72,7.72,0,0,1-2.72.43,10.58,10.58,0,0,1-2.18-.19,7.84,7.84,0,0,1-1.74-.55V23.82a13,13,0,0,0,2,.7,7.65,7.65,0,0,0,2,.3,3.27,3.27,0,0,0,1.82-.4,1.27,1.27,0,0,0,.56-1.07,1.19,1.19,0,0,0-.22-.71,2.64,2.64,0,0,0-.83-.64,18.25,18.25,0,0,0-1.79-.8,13.17,13.17,0,0,1-1.94-.92,3.37,3.37,0,0,1-1.19-1.11,3.11,3.11,0,0,1-.41-1.67,2.75,2.75,0,0,1,1.28-2.45,6.09,6.09,0,0,1,3.38-.84,9.49,9.49,0,0,1,2.11.22,9.87,9.87,0,0,1,1.94.66L113,17a12.82,12.82,0,0,0-1.64-.58,6,6,0,0,0-1.68-.24,3,3,0,0,0-1.52.31.94.94,0,0,0-.52.86,1.08,1.08,0,0,0,.25.73,2.88,2.88,0,0,0,.87.59c.41.19,1,.44,1.73.73a14.39,14.39,0,0,1,1.87.87,3.38,3.38,0,0,1,1.22,1.11A3,3,0,0,1,114,23.1Z"/><path class="b" d="M122,10.55a6.51,6.51,0,0,1,4.52,1.33A4.81,4.81,0,0,1,128,15.55a6.3,6.3,0,0,1-.32,2,4.43,4.43,0,0,1-1,1.71,5.08,5.08,0,0,1-1.91,1.17,8.69,8.69,0,0,1-3,.44H120.3v5.69h-3.4v-16Zm-.18,2.78H120.3v4.75h1.11a4.87,4.87,0,0,0,1.66-.25,2.19,2.19,0,0,0,1.08-.79,2.24,2.24,0,0,0,.38-1.37,2.24,2.24,0,0,0-.65-1.76A3.07,3.07,0,0,0,121.84,13.33Z"/><path class="b" d="M135.73,14.07a5.89,5.89,0,0,1,3.78,1.07,4,4,0,0,1,1.31,3.26v8.16h-2.33l-.65-1.67h-.08A6.12,6.12,0,0,1,136.68,26a3.69,3.69,0,0,1-1.26.61,6.55,6.55,0,0,1-1.72.2,4.4,4.4,0,0,1-1.95-.42,3.08,3.08,0,0,1-1.35-1.28,4.32,4.32,0,0,1-.49-2.18A3.19,3.19,0,0,1,131.28,20a7.9,7.9,0,0,1,4.1-1l2.12-.06V18.4A1.78,1.78,0,0,0,137,17a2,2,0,0,0-1.4-.45,6.05,6.05,0,0,0-1.74.25,13.2,13.2,0,0,0-1.71.64l-1.1-2.26a9.67,9.67,0,0,1,2.18-.81A10.89,10.89,0,0,1,135.73,14.07Zm1.77,6.82-1.29,0a3.69,3.69,0,0,0-2.25.58,1.77,1.77,0,0,0-.63,1.41,1.25,1.25,0,0,0,.45,1.09,1.93,1.93,0,0,0,1.17.32,2.72,2.72,0,0,0,1.82-.63,2.26,2.26,0,0,0,.73-1.81Z"/><path class="b" d="M147.6,26.56h-3.34v-17h3.34Z"/></svg>